<svg width="210" height="231" viewBox="0 0 210 231" fill="none" xmlns="http://www.w3.org/2000/svg">
<path d="M197.305 61.454C187.966 99.4542 142.028 169.999 32.9983 148.174" stroke="#B8F1C4" stroke-width="3" stroke-linecap="round" stroke-linejoin="round"/>
<path fill-rule="evenodd" clip-rule="evenodd" d="M60.4142 179.897C61.2354 179.541 61.6581 178.628 61.3564 177.817C56.6484 165.13 51.0694 154.036 34.558 148.742C48.9581 147.131 55.1069 141.695 61.9532 135.651C62.8832 134.83 63.831 133.994 64.8202 133.147C65.5296 132.541 65.6161 131.509 65.0154 130.844C64.4125 130.179 63.3477 130.14 62.6413 130.735C61.637 131.594 60.6747 132.443 59.7316 133.277C50.7938 141.171 43.7293 147.407 16.9558 145.685C16.0213 145.626 15.2049 146.305 15.1107 147.204C15.0166 148.104 15.6906 148.878 16.6152 148.939C47.7654 150.943 53.2996 165.855 58.1817 179.011C58.4934 179.849 59.456 180.262 60.3311 179.932C60.3597 179.921 60.3862 179.909 60.4142 179.897" fill="#B8F1C4"/>
</svg>
