<svg width="139" height="86" viewBox="0 0 139 86" fill="none" xmlns="http://www.w3.org/2000/svg">
<path fill-rule="evenodd" clip-rule="evenodd" d="M15.0599 75.3404C21.8433 80.4524 32.6171 81.8819 45.4183 79.657C51.0178 78.6839 57.008 77.0097 63.2175 74.6399C83.7477 66.8067 103.688 52.4391 118.388 34.9649C113.572 43.5619 114.661 51.7081 116.618 60.3512C116.76 60.9831 117.366 61.3868 117.986 61.2791C118.007 61.2754 118.027 61.2719 118.048 61.2671C118.689 61.1212 119.09 60.4725 118.942 59.8194C116.621 49.5693 113.991 37.9516 131.405 24.1033C131.921 23.6914 132.01 22.932 131.602 22.4042C131.193 21.8764 130.449 21.7794 129.926 22.1937C114.959 34.0958 108.379 33.0273 100.052 31.6722C99.1733 31.5286 98.277 31.3831 97.3525 31.2487C96.7055 31.1595 96.0987 31.6141 96.0082 32.2766C95.9186 32.9378 96.375 33.552 97.0276 33.6463C97.9387 33.7794 98.8212 33.9224 99.6876 34.0632L99.7018 34.0655C105.072 34.9381 109.986 35.7364 116.811 33.0906C85.1561 70.9904 34.8899 87.2703 16.4835 73.3971C4.95042 64.7052 8.03801 45.8265 25.178 20.2357C25.5485 19.6836 25.4051 18.9289 24.8559 18.5502C24.3096 18.1747 23.5649 18.314 23.1936 18.8687C-1.04889 55.0675 7.69229 69.788 15.0599 75.3404ZM120.677 31.3175C120.687 31.3503 120.696 31.3834 120.703 31.4168C120.749 31.3545 120.796 31.2923 120.843 31.2299C120.788 31.2594 120.733 31.2886 120.677 31.3175Z" fill="#B8F1C4"/>
</svg>
