<svg width="321" height="232" viewBox="0 0 321 232" fill="none" xmlns="http://www.w3.org/2000/svg">
<path fill-rule="evenodd" clip-rule="evenodd" d="M268.814 24.1986C251.972 15.6378 227.7 16.6403 200.313 26.3933C188.334 30.6593 175.754 36.6046 162.948 44.1522C120.608 69.1013 81.989 108.085 56.0682 151.844C63.496 131.24 58.0778 113.879 50.5628 95.7652C50.0147 94.4408 48.5296 93.7916 47.2033 94.2639C47.158 94.28 47.1153 94.2953 47.071 94.3139C45.7121 94.8775 45.0706 96.4463 45.6374 97.8152C54.5498 119.296 64.65 143.644 31.4066 180.527C30.4214 181.624 30.5058 183.315 31.602 184.311C32.6981 185.306 34.3733 185.233 35.3726 184.129C63.946 152.428 78.8423 152.243 97.6945 152.014C99.6847 151.991 101.714 151.966 103.801 151.906C105.26 151.853 106.429 150.628 106.382 149.148C106.335 147.671 105.102 146.505 103.628 146.549C101.571 146.607 99.5737 146.633 97.6122 146.657L97.5801 146.657C85.4221 146.808 74.2977 146.945 60.2367 155.331C115.954 60.5101 220.695 5.75062 266.397 28.9842C295.033 43.5403 295.224 85.9209 266.934 148.326C266.322 149.673 266.917 151.265 268.268 151.881C269.611 152.492 271.2 151.903 271.813 150.55C311.825 62.2775 287.108 33.4969 268.814 24.1986ZM52.3738 160.679C52.34 160.612 52.3091 160.542 52.2812 160.472C52.2018 160.626 52.1218 160.78 52.041 160.934C52.1521 160.848 52.2631 160.764 52.3738 160.679Z" fill="#B8F1C4"/>
</svg>
