<svg width="286" height="195" viewBox="0 0 286 195" fill="none" xmlns="http://www.w3.org/2000/svg">
<path fill-rule="evenodd" clip-rule="evenodd" d="M270.799 107.838C262.882 122.949 244.495 134.907 219.239 142.056C208.192 145.183 195.824 147.388 182.452 148.532C138.241 152.32 89.4286 143.833 47.4626 125.189C63.707 136.467 68.8012 152.077 72.7459 169.338C73.0353 170.6 72.282 171.854 71.0588 172.201C71.0171 172.212 70.9778 172.223 70.9354 172.233C69.6405 172.529 68.3478 171.71 68.0488 170.406C63.3709 149.936 58.0677 126.735 14.3093 116.981C13.0107 116.689 12.188 115.4 12.4739 114.094C12.7598 112.788 14.0308 111.966 15.3439 112.256C52.9542 120.638 64.0138 112.982 78.0071 103.289C79.4838 102.265 80.9902 101.222 82.5579 100.174C83.659 99.4503 85.1597 99.7399 85.9002 100.853C86.6378 101.965 86.3401 103.468 85.233 104.207C83.6888 105.24 82.2052 106.266 80.7491 107.275L80.7253 107.291C71.6992 113.54 63.4405 119.258 48.7062 120.442C139.31 161.077 245.036 146.586 266.516 105.581C279.976 79.8888 257.947 48.6004 204.483 17.4737C203.329 16.8028 202.934 15.3196 203.606 14.1595C204.275 13.0077 205.752 12.6096 206.911 13.2845C282.532 57.316 279.397 91.4259 270.799 107.838ZM40.122 120.619C40.1325 120.687 40.1459 120.754 40.162 120.82C40.0233 120.749 39.8839 120.677 39.7439 120.606C39.8703 120.611 39.9964 120.615 40.122 120.619Z" fill="#B8F1C4"/>
</svg>
