<svg width="374" height="228" viewBox="0 0 374 228" fill="none" xmlns="http://www.w3.org/2000/svg">
<path d="M314 31.0078C280.5 166.5 152 224.5 3 224.5" stroke="#FFD27B" stroke-width="6" stroke-linecap="round" stroke-linejoin="round"/>
<path fill-rule="evenodd" clip-rule="evenodd" d="M338.507 87.084C337.432 88.1202 335.887 88.2525 335.004 87.3549C321.164 73.3248 310.114 58.863 314.818 31.1906C302.257 51.9039 290.444 58.1401 277.303 65.0889C275.518 66.0328 273.7 66.9951 271.837 68.0137C270.504 68.745 269.04 68.3081 268.57 67.0418C268.1 65.7718 268.814 64.1535 270.131 63.4211C272.021 62.3864 273.868 61.4096 275.68 60.4531C292.84 51.3837 306.398 44.2129 323.344 3.11033C323.938 1.67662 325.448 0.82476 326.737 1.17758C328.026 1.53041 328.593 2.96658 328.009 4.38674C308.293 52.209 324.56 68.7 338.912 83.2488C339.825 84.1765 339.693 85.8471 338.614 86.9782C338.579 87.0154 338.544 87.0487 338.507 87.084" fill="#FFD27B"/>
</svg>
