<svg width="208" height="109" viewBox="0 0 208 109" fill="none" xmlns="http://www.w3.org/2000/svg">
<path d="M5.81291 97.1852C41.9909 112.098 126.047 116.709 172.849 15.8454" stroke="#B8F1C4" stroke-width="3" stroke-linecap="round" stroke-linejoin="round"/>
<path fill-rule="evenodd" clip-rule="evenodd" d="M182.248 56.7058C181.475 57.158 180.489 56.9596 180.013 56.2373C172.558 44.9437 166.902 33.888 172.385 17.4387C162.578 28.1056 154.559 29.8551 145.638 31.8085C144.426 32.0738 143.192 32.3447 141.924 32.6425C141.017 32.8571 140.133 32.3174 139.951 31.4399C139.77 30.5601 140.368 29.678 141.266 29.4599C142.552 29.1568 143.806 28.8821 145.036 28.6138C156.685 26.066 165.89 24.0497 180.317 1.43021C180.822 0.641732 181.852 0.383822 182.633 0.839185C183.414 1.29455 183.641 2.29574 183.144 3.07769C166.359 29.3954 175.12 42.6697 182.851 54.381C183.343 55.1275 183.108 56.148 182.324 56.659C182.299 56.6758 182.274 56.6904 182.248 56.7058" fill="#B8F1C4"/>
</svg>
