<svg width="243" height="487" viewBox="0 0 243 487" fill="none" xmlns="http://www.w3.org/2000/svg">
<path fill-rule="evenodd" clip-rule="evenodd" d="M-67.0925 274.143C-55.8841 270.89 -47.6293 271.565 -41.4517 276.014C-28.7221 285.182 -25.0101 310.035 -30.4574 363.032C-19.1851 315.551 -8.91907 295.919 3.71189 293.631C10.8143 292.351 18.3271 296.542 27.255 307.197C23.1275 295.523 23.3616 287.816 27.6496 282.903C36.1518 273.162 60.6108 275.988 113.227 294.689C70.9387 273.541 54.935 259.839 56.3595 248.362C57.2946 240.821 65.6289 234.854 83.5418 229.641C63.5208 230.225 53.6588 227.218 50.86 220.459C46.9316 210.964 58.2526 195.36 91.6509 166.98C51.9163 192.436 37.2851 194.948 29.9398 189.078C23.6886 184.087 23.5634 172.266 30.1876 150.777C17.1593 173.132 6.49693 182.5 -3.92407 181.735C-15.6438 180.865 -26.5546 166.895 -38.993 134.956C-29.5663 177.466 -31.0562 189.28 -37.157 192.324C-41.4883 194.501 -47.7348 192.216 -61.2949 177.608C-54.6849 190.872 -53.7455 200.149 -57.9442 206.734C-65.5124 218.601 -88.9528 220.963 -139.683 212.952C-81.7884 229.406 -59.2596 241.783 -57.3692 255.565C-56.5461 261.549 -59.7158 267.6 -67.3806 274.227L-67.0925 274.143ZM-45.1456 454.82C-45.4599 454.911 -45.8007 454.935 -46.1446 454.876C-47.0213 454.727 -47.6903 454.086 -47.9224 453.287C-48.0137 452.972 -48.038 452.631 -47.9771 452.286C-31.5015 355.869 -25.0968 293.379 -44.048 279.768C-52.5673 273.647 -66.7672 276.551 -90.1003 289.192C-91.1939 289.783 -92.5488 289.377 -93.1384 288.286C-93.2179 288.141 -93.278 287.99 -93.3218 287.839C-93.6096 286.847 -93.1797 285.755 -92.2361 285.243C-70.3866 273.409 -60.7131 264.215 -61.7942 256.316C-64.4595 236.856 -131.213 217.793 -238.063 193.342C-238.886 193.153 -239.497 192.533 -239.717 191.777C-239.82 191.423 -239.838 191.038 -239.749 190.653C-239.476 189.447 -238.273 188.687 -237.066 188.967C-140.02 211.174 -73.0579 222.318 -61.669 204.518C-55.7507 195.268 -64.2615 176.311 -88.4426 144.858C-88.6188 144.629 -88.7438 144.375 -88.8195 144.114C-89.0712 143.255 -88.7889 142.289 -88.0349 141.711C-87.0558 140.959 -85.6474 141.139 -84.8917 142.119C-59.3505 175.339 -43.9361 190.981 -39.0756 188.517C-28.7618 183.378 -52.6318 96.5697 -62.8239 59.5001C-63.152 58.3053 -62.4438 57.0061 -61.2551 56.7429C-60.0711 56.4156 -58.848 57.1075 -58.5086 58.285L-58.5004 58.313C-41.7213 119.332 -23.4446 175.997 -3.47733 177.46C9.79953 178.421 26.0876 155.338 49.2183 102.549C49.7179 101.415 51.0384 100.899 52.1747 101.396C52.8066 101.676 53.2469 102.212 53.4258 102.828C53.5672 103.315 53.5462 103.854 53.3274 104.355C39.708 135.433 22.7722 177.682 32.8799 185.737C45.888 196.104 106.148 153.915 163.377 111.275C164.365 110.537 165.771 110.741 166.512 111.737C166.677 111.958 166.794 112.199 166.866 112.45C167.12 113.325 166.825 114.301 166.053 114.875C107.871 158.226 49.1982 204.478 55.1517 218.854C59.5519 229.479 100.944 224.721 131.697 220.219C132.818 220.053 133.871 220.752 134.176 221.813C134.204 221.91 134.227 222.011 134.241 222.115C134.423 223.338 133.617 224.486 132.348 224.657C102.456 229.038 62.5279 236.322 60.9402 248.994C58.6983 266.922 129.491 299.127 206.328 331.259C206.979 331.532 207.435 332.075 207.619 332.707C207.756 333.181 207.737 333.703 207.534 334.194C207.059 335.337 205.748 335.879 204.603 335.4C109.336 295.562 43.3599 271.886 31.1019 285.911C25.5038 292.308 30.2137 307.867 45.927 334.882C46.0214 335.046 46.0936 335.214 46.1443 335.389C46.4239 336.352 46.0241 337.42 45.1181 337.949C44.0447 338.569 42.6774 338.209 42.0515 337.138C25.6021 308.858 13.6877 296.452 4.55965 298.102C-13.9245 301.499 -28.0786 362.459 -43.5605 453.044C-43.708 453.919 -44.347 454.588 -45.1456 454.82Z" fill="#2548C0"/>
</svg>
