<?xml version="1.0" encoding="utf-8"?>
<!-- Generator: Adobe Illustrator 25.4.1, SVG Export Plug-In . SVG Version: 6.00 Build 0)  -->
<svg version="1.1" id="Calque_1" xmlns="http://www.w3.org/2000/svg" xmlns:xlink="http://www.w3.org/1999/xlink" x="0px" y="0px"
	 viewBox="0 0 529 456" style="enable-background:new 0 0 529 456;" xml:space="preserve">
<style type="text/css">
	.st0{fill-rule:evenodd;clip-rule:evenodd;fill:#2342B2;}
</style>
<path class="st0" d="M545.6,19.7C532.1,26,515,63.2,523.5,139.8c0.2,2-1.5,3.8-4,4c-2.4,0.3-4.7-1.1-5-3.1
	c-13.5-75-25.9-114-32.5-126c-1.3,10.7-0.3,41.9,13.2,113.5c0.3,1.8-1,3.6-3.2,4.1c-2.1,0.5-4.5-0.3-5.4-2
	c-35.4-61.9-55.5-89.2-64.4-98.4c3.2,13.5,19.8,51.2,58.8,118.3c1.1,1.8,0.2,4-2,4.9c-2.2,0.9-4.9,0.2-6-1.5
	c-42.7-64-80.2-86.7-95.8-86.7c-0.3,0-0.6,0-0.9,0c-3.2,0.2-5.3,1.5-6.4,4.1c-5.4,12.3,10.6,49.6,77,102.1c1.8,1.4,1.8,3.7,0.2,5.1
	c-1.7,1.5-4.4,1.6-6.3,0.3c-68.6-48.3-107.9-69.8-121.3-74.3c6.4,8.1,30.5,30.5,97.3,76.9c1.7,1.2,2.1,3.2,0.9,4.8
	c-1.2,1.6-3.6,2.2-5.6,1.4c-69.7-24.5-104.5-33.5-118.3-35.7c13.2,7.8,52.5,25.7,132.2,53.2c2.3,0.8,3.3,2.9,2.5,4.7
	c-0.9,1.9-3.4,2.8-5.7,2.1c-82.4-23.9-126.9-31.8-140.8-31.8h-0.2c8.8,5.5,39.7,18.9,120.2,41.7c2.1,0.6,3.4,2.4,3,4.1
	s-2.3,3.1-4.6,3c-72-1.4-106.7,0.8-119.9,2.9c15.2,3.2,58.1,7.7,141.1,8.9c2.4,0,4.4,1.6,4.4,3.6c0,2-1.9,3.6-4.3,3.7
	c-86.3,3.2-127.5,9.9-139,13.8c10.1,2.4,43.2,5.4,124.5,1.9c2.1-0.1,4.2,1.1,4.7,2.9c0.5,1.8-0.7,3.6-2.7,4.2
	c-82.2,26.6-106,47.9-107.1,55.5c-0.2,1.3,0.3,2.2,1.6,2.9c9.5,5.5,51.4,2.5,128-28.3c2-0.8,4.4-0.3,5.7,1.1
	c1.3,1.5,1.1,3.5-0.4,4.7c-46.9,39.2-66.2,59.7-71.9,68c11.9-5.6,43-25.9,96.9-71.6c1.7-1.5,4.6-1.5,6.4-0.1
	c1.8,1.4,1.9,3.7,0.2,5.2c-51,44.8-94.1,100.5-106.3,121.5c8.9-7.7,27.7-26,65.8-69.5c1.5-1.7,4.3-2,6.3-0.9c1.2,0.7,1.9,1.9,1.9,3
	c0,0.7-0.3,1.5-0.8,2.1c-61.6,70.4-53.8,80.8-53.7,80.9l0,0c0,0,1.2,0.4,4.9-0.7c26.5-8.2,91.4-64.9,114-124.2
	c0.7-1.9,3.2-3,5.6-2.4c2.4,0.6,3.7,2.6,3.1,4.5c-19.9,61.2-23.9,92.3-22.8,101.9c5.3-6.7,17.3-28.9,34.7-84.4
	c0.5-1.7,2.6-2.9,4.7-2.8c2.2,0.1,3.9,1.5,4.2,3.3 M541.8,315c0,0-11.9,25.5-17.3,44.5c-11.9,35.4-26.4,71.1-37.2,73.5
	c-2.3,0.5-4.5,0-6.2-1.3c-7.6-6.2-0.6-40.3,7.3-69.7c-14.2,21-30.2,38.1-40.9,48.3c-24.9,24.1-49.6,40.4-62.9,41.7
	c-0.6,0.1-1.2,0.1-1.7,0.1l0,0c-5.1,0-7.5-2.3-8.6-3.8c-3-4.1-1.5-11.9,4.5-23.1C361,442.5,357.3,442,355,441.8
	c-2.1-0.2-3.7-1.3-4.4-3c-3.2-7.3,23.9-45.1,59.2-84.1c-22,16.2-43.2,29.8-50.7,28.3c-2.1-0.4-3.7-1.7-4.3-3.4
	c-2.8-8.1,27.6-37,59.2-64.2c-55.9,20.3-99.8,27.9-114.9,19.2c-4.1-2.3-6-5.8-5.4-9.8c2.1-14.2,35.6-34,89.1-53.3
	c-46.2,1.4-103.4,1.4-110.1-7.1c-1.3-1.6-1.4-3.5-0.3-5.2c4.2-6.7,35.7-11.3,69.6-14.3c-36.2-2-70.5-5.5-74.6-11.5
	c-1-1.5-1-3.3,0.1-4.7c5.2-7,55.8-8.4,106-8.1c-45.4-13.5-100.3-31.7-102.6-41.5c-0.4-1.8,0.3-3.6,2.1-4.8c7-4.9,39.6,1,73.9,9
	c-33.9-13.4-65.3-27.5-66.3-34.4c-0.2-1.7,0.6-3.3,2.3-4.3c8.2-5,58.2,9.9,106.9,26.5c-37.8-27-82.7-61.5-80.4-71.2
	c0.4-1.8,1.9-3.2,4-3.8c10.4-3,49.6,20.3,84.2,42.9c-31.2-32.7-41.1-57.9-35.5-70.6c2.4-5.3,7.4-8.5,14.2-8.9
	c19.7-1.2,45.7,18.3,70,45.1c-18.7-35-37.5-74.5-31.6-81.5c1.2-1.4,3.2-2.2,5.3-2c10.8,0.7,37.8,42,62.5,83.7
	c-7.2-42.2-13.9-93.9-4.8-99.9c1.7-1.1,3.9-1.4,5.9-0.7c10,3.2,21.2,44,29.6,81.4c2.4-41.5,14.5-65.8,28.5-72.2"/>
</svg>
