<?xml version="1.0" encoding="utf-8"?>
<!-- Generator: Adobe Illustrator 25.4.1, SVG Export Plug-In . SVG Version: 6.00 Build 0)  -->
<svg version="1.1" id="Calque_1" xmlns="http://www.w3.org/2000/svg" xmlns:xlink="http://www.w3.org/1999/xlink" x="0px" y="0px"
	 viewBox="0 0 529 456" style="enable-background:new 0 0 529 456;" xml:space="preserve">
<style type="text/css">
	.st0{fill-rule:evenodd;clip-rule:evenodd;fill:#FFD27B;}
</style>
<path class="st0" d="M542.1,19.7c-13.4,6.3-30.3,43.4-21.8,120.1c0.2,2-1.5,3.8-3.9,4c-2.4,0.3-4.6-1.1-4.9-3.1
	c-13.3-75-25.5-114-32-126c-1.3,10.7-0.3,41.9,13,113.5c0.3,1.8-1,3.6-3.1,4.1c-2.1,0.5-4.4-0.3-5.3-2c-35-61.9-54.8-89.2-63.5-98.4
	c3.2,13.5,19.5,51.2,58.1,118.3c1,1.8,0.2,4-2,4.9c-2.2,0.9-4.8,0.2-5.9-1.5c-42.2-64-79.2-86.7-94.5-86.7c-0.3,0-0.6,0-0.9,0
	c-3.2,0.2-5.2,1.5-6.3,4.1c-5.4,12.3,10.4,49.6,76,102.1c1.7,1.4,1.8,3.7,0.2,5.1c-1.6,1.5-4.4,1.6-6.2,0.3
	c-67.7-48.3-106.5-69.8-119.8-74.3c6.3,8.1,30.1,30.5,96.1,76.9c1.7,1.2,2.1,3.2,0.9,4.8c-1.2,1.6-3.5,2.2-5.6,1.4
	c-68.8-24.5-103.1-33.5-116.8-35.7c13,7.8,51.9,25.7,130.5,53.2c2.2,0.8,3.3,2.9,2.4,4.7c-0.9,1.9-3.4,2.8-5.7,2.1
	c-81.3-23.9-125.3-31.8-139-31.8h-0.2c8.7,5.5,39.2,18.9,118.6,41.7c2.1,0.6,3.3,2.4,2.9,4.1s-2.2,3.1-4.5,3
	c-71.1-1.4-105.3,0.8-118.4,2.9c15,3.2,57.4,7.7,139.3,8.9c2.4,0,4.3,1.6,4.4,3.6c0,2-1.9,3.6-4.3,3.7
	c-85.2,3.2-125.9,9.9-137.2,13.8c9.9,2.4,42.7,5.4,122.9,1.9c2.1-0.1,4.1,1.1,4.6,2.9c0.5,1.8-0.7,3.6-2.7,4.2
	c-81.1,26.6-104.6,47.9-105.7,55.5c-0.2,1.3,0.3,2.2,1.6,2.9c9.4,5.5,50.7,2.5,126.3-28.3c1.9-0.8,4.3-0.3,5.6,1.1
	c1.3,1.5,1.1,3.5-0.4,4.7c-46.3,39.2-65.3,59.7-71,68c11.7-5.6,42.4-25.9,95.6-71.6c1.7-1.5,4.5-1.5,6.3-0.1
	c1.8,1.4,1.9,3.7,0.2,5.2c-50.4,44.8-92.9,100.5-104.9,121.5c8.8-7.7,27.3-26,64.9-69.5c1.4-1.7,4.2-2,6.2-0.9
	c1.2,0.7,1.9,1.9,1.9,3c0,0.7-0.3,1.5-0.8,2.1c-60.8,70.4-53.1,80.8-53,80.9l0,0c0,0,1.2,0.4,4.8-0.7
	c26.2-8.2,90.2-64.9,112.6-124.2c0.7-1.9,3.2-3,5.5-2.4c2.3,0.6,3.7,2.6,3.1,4.5c-19.7,61.2-23.6,92.3-22.5,101.9
	c5.3-6.7,17.1-28.9,34.3-84.4c0.5-1.7,2.6-2.9,4.6-2.8c2.2,0.1,3.9,1.5,4.1,3.3 M538.3,315c0,0-11.8,25.5-17.1,44.5
	c-11.8,35.4-26.1,71.1-36.7,73.5c-2.2,0.5-4.4,0-6.1-1.3c-7.5-6.2-0.5-40.3,7.3-69.7c-14,21-29.9,38.1-40.4,48.3
	c-24.6,24.1-49,40.4-62.1,41.7c-0.6,0.1-1.2,0.1-1.7,0.1l0,0c-5,0-7.4-2.3-8.5-3.8c-3-4.1-1.5-11.9,4.5-23.1
	c-17.6,17.2-21.3,16.7-23.5,16.5c-2-0.2-3.6-1.3-4.3-3c-3.1-7.3,23.6-45.1,58.5-84.1c-21.7,16.2-42.6,29.8-50.1,28.3
	c-2.1-0.4-3.7-1.7-4.3-3.4c-2.8-8.1,27.2-37,58.5-64.2c-55.2,20.3-98.6,27.9-113.4,19.2c-4-2.3-5.9-5.8-5.3-9.8
	c2.1-14.2,35.1-34,88-53.3c-45.6,1.4-102.1,1.4-108.7-7.1c-1.3-1.6-1.4-3.5-0.3-5.2c4.2-6.7,35.3-11.3,68.7-14.3
	c-35.8-2-69.6-5.5-73.6-11.5c-1-1.5-1-3.3,0.1-4.7c5.2-7,55.1-8.4,104.7-8.1c-44.8-13.5-99-31.7-101.3-41.5
	c-0.4-1.8,0.3-3.6,2.1-4.8c6.9-4.9,39.1,1,72.9,9c-33.5-13.4-64.4-27.5-65.5-34.4c-0.2-1.7,0.6-3.3,2.2-4.3
	c8.1-5,57.4,9.9,105.6,26.5c-37.3-27-81.6-61.5-79.4-71.2c0.4-1.8,1.9-3.2,4-3.8c10.2-3,49,20.3,83.1,42.9
	c-30.8-32.7-40.6-57.9-35-70.6c2.3-5.3,7.3-8.5,14.1-8.9c19.4-1.2,45.1,18.3,69.1,45.1c-18.4-35-37.1-74.5-31.2-81.5
	c1.2-1.4,3.1-2.2,5.2-2c10.6,0.7,37.3,42,61.7,83.7c-7.1-42.2-13.8-93.9-4.7-99.9c1.7-1.1,3.8-1.4,5.8-0.7
	c9.8,3.2,20.9,44,29.2,81.4c2.4-41.5,14.4-65.8,28.2-72.2"/>
</svg>
