<?xml version="1.0" encoding="utf-8"?>
<!-- Generator: Adobe Illustrator 25.4.1, SVG Export Plug-In . SVG Version: 6.00 Build 0)  -->
<svg version="1.1" id="Calque_1" xmlns="http://www.w3.org/2000/svg" xmlns:xlink="http://www.w3.org/1999/xlink" x="0px" y="0px"
	 viewBox="0 0 595.3 841.9" style="enable-background:new 0 0 595.3 841.9;" xml:space="preserve">
<style type="text/css">
	.st0{fill:none;}
	.st1{fill:#FFFFFF;}
</style>
<path class="st0" d="M157.4,366.3c-31.1-18.5-80.2-20.2-109.8-11.2c-4.1,1.3-6.5,5.6-5.2,9.8c1.3,4.1,5.6,6.5,9.8,5.2
	c25.8-7.8,70.3-6.3,97.3,9.7v0c3.7,2.2,8.5,1,10.7-2.7C162.4,373.4,161.1,368.5,157.4,366.3z"/>
<path class="st0" d="M369.1,381.9c-9.3,0-16.1,7.3-16.1,17.1s7,17.3,16.3,17.3v0c9.4,0,16.2-7.2,16.2-17.1S378.4,381.9,369.1,381.9z
	"/>
<path class="st0" d="M146.4,394.6c-25.8-15.9-63.7-20.3-94.1-11.1c-0.1,0-0.3,0.1-0.4,0.1c-3.4,1.2-5.2,4.9-4.1,8.3
	c1.2,3.4,4.9,5.2,8.3,4.1c26.6-8.1,60.9-4.1,83.4,9.8c0,0,0,0,0,0c3.1,1.9,7.1,0.9,9-2.2l0,0c0,0,0,0,0,0
	C150.4,400.5,149.5,396.5,146.4,394.6z"/>
<path class="st0" d="M303.9,381.8c-8.9,0-15.5,7.4-15.5,17.2c0,9.8,6.6,17.2,15.5,17.2s15.2-7.1,15.2-17.2
	C319.1,389,312.7,381.8,303.9,381.8z"/>
<path class="st0" d="M515.5,370.6C515.5,370.6,515.5,370.6,515.5,370.6c-4.6,0-8.3,3.6-8.4,8.1c0,4.5,3.6,8.3,8.1,8.3
	c4.5,0,8.3-3.6,8.3-8.1c0,0,0-0.1,0-0.1C523.6,374.3,520,370.7,515.5,370.6z M517.9,383.4l-2.3-3.4h-2v3.3h-1.8v-9.6h4.2
	c2.2,0,3.7,1.1,3.7,3c0.1,1.4-0.9,2.6-2.2,2.9l0,0.1l2.6,3.6H517.9z"/>
<path class="st0" d="M516,375.4L516,375.4l-2.4,0v3h2.4c1.2,0,1.9-0.6,1.9-1.5C517.9,376,517.2,375.4,516,375.4z"/>
<path class="st1" d="M244.1,382.9L244.1,382.9c-14.5-3.4-17.1-5.9-17.1-10.9c0-4.8,4.5-8,11.2-8c6.5,0,13,2.5,19.8,7.5
	c0.2,0.2,0.5,0.2,0.7,0.2c0.3,0,0.5-0.2,0.6-0.4l7.1-10c0.3-0.4,0.2-1-0.2-1.3c-7.8-6.4-17.7-9.8-27.8-9.6
	c-15.6,0-26.5,9.4-26.5,22.8c0,14.4,9.4,19.5,25.7,23.4c13.8,3.2,16.2,5.9,16.2,10.6c0,5.3-4.7,8.6-12.3,8.6c-8.4,0-15.3-2.9-23-9.5
	c-0.2-0.2-0.4-0.2-0.7-0.2c-0.3,0-0.5,0.1-0.7,0.3l-7.9,9.4c-0.3,0.4-0.3,1,0.1,1.3c8.7,7.9,20.1,12.3,31.9,12.2
	c16.8,0,27.7-9.2,27.7-23.4C268.9,393.9,261.7,387.2,244.1,382.9z"/>
<path class="st1" d="M306.9,368.6c-7.3,0-13.3,2.9-18.2,8.8v-6.6c0-0.5-0.4-0.9-1-1h-13c-0.5,0-0.9,0.4-0.9,0.9c0,0,0,0,0,0v73.6
	c0,0.5,0.4,0.9,0.9,1h13c0.5,0,0.9-0.4,1-1v-23.2c4.5,5.4,11.2,8.4,18.2,8.2c13.5,0,27.3-10.4,27.3-30.4S320.4,368.6,306.9,368.6z
	 M303.9,416.2c-9,0-15.5-7.4-15.5-17.2c0-9.8,6.7-17.2,15.5-17.2c8.9,0,15.2,7.2,15.2,17.2C319.1,409.1,312.8,416.2,303.9,416.2z"/>
<path class="st1" d="M369.3,368.6L369.3,368.6c-17.5,0-31.1,13.4-31.1,30.6c0,17,13.6,30.3,30.9,30.3c17.5,0,31.2-13.4,31.2-30.5
	C400.3,381.9,386.7,368.6,369.3,368.6z M369.3,416.3L369.3,416.3c-9.3,0-16.3-7.5-16.3-17.3s6.8-17.1,16.1-17.1s16.4,7.5,16.4,17.3
	S378.7,416.3,369.3,416.3z"/>
<path class="st1" d="M503.5,369.9H490c-0.4,0-0.8,0.3-0.9,0.6l-13.8,39.4l-15.1-39.5c-0.2-0.4-0.5-0.6-0.9-0.6h-21.5
	c-0.1,0-0.2,0-0.2,0c0,0,0,0,0,0h-14.2v-14.6c0-0.5-0.4-1-1-1h-12.9c-0.6,0-1,0.4-1,1v14.6h-6.2c-0.5,0-0.9,0.4-0.9,0.9c0,0,0,0,0,0
	v11.1c0,0.5,0.4,0.9,0.9,1h6.2v28.8c0,11.6,5.8,17.5,17.2,17.5c4.2,0.1,8.4-0.9,12.1-3c0.3-0.2,0.5-0.5,0.5-0.8v-10.6
	c0-0.5-0.4-0.9-1-0.9c-0.1,0-0.3,0-0.4,0.1c-2.3,1.2-5,1.9-7.6,1.8c-4.2,0-6-1.9-6-6.1v-26.8h14.1l0,0h12.1l18.5,44.4
	c-2.1,4.7-4.2,5.6-7,5.6c-2.5-0.1-5-0.7-7.1-2c-0.2-0.1-0.5-0.2-0.8-0.1c-0.3,0.1-0.5,0.3-0.6,0.5l-4.4,9.6c-0.2,0.5,0,1,0.4,1.2
	c4.2,2.4,9,3.6,13.8,3.5c9.6,0,14.9-4.5,19.5-16.4l22.5-58c0.1-0.3,0.1-0.6-0.1-0.9C504.1,370,503.8,369.9,503.5,369.9z"/>
<path class="st1" d="M517.5,379.7c1.3-0.3,2.3-1.5,2.2-2.9c0-1.9-1.5-3-3.7-3h-4.2v9.6h1.8V380h2l2.3,3.4h2.2L517.5,379.7
	L517.5,379.7z M516,378.4h-2.4v-3h2.4v0c1.2,0,1.9,0.6,1.9,1.5C517.9,377.8,517.2,378.4,516,378.4z"/>
<path class="st1" d="M515.5,369.7c-5,0-9.1,4.1-9.2,9.1c0,5,4.1,9.1,9.1,9.2c5.1,0,9.2-4.1,9.2-9.2
	C524.6,373.8,520.5,369.7,515.5,369.7z M515.3,387.1c-4.5,0-8.2-3.8-8.1-8.3c0-4.5,3.8-8.2,8.3-8.1c0,0,0,0,0.1,0
	c4.5,0,8.1,3.7,8.1,8.2c0,0,0,0.1,0,0.1C523.6,383.5,519.9,387.1,515.3,387.1z"/>
<path class="st1" d="M99.9,305.6c-46.3,0-83.8,37.5-83.8,83.7c0,46.3,37.5,83.8,83.7,83.8c46.3,0,83.8-37.5,83.8-83.7c0,0,0,0,0,0
	C183.6,343.1,146.1,305.6,99.9,305.6z M130.8,420.3c-0.2,0.3-0.2,0.4-0.1,0.5l-13.4-1.3c0-0.1,0-0.3-0.1-0.6
	c-0.1-0.2-0.5-0.7-1.2-1.3c-0.7-0.6-1.6-1.2-2.8-1.8c-1.2-0.5-3-1.1-5.6-1.7c-2.6-0.6-5.6-1.1-9.1-1.4c-6.1-0.6-11.1-0.6-15.1,0.1
	c-4,0.7-6.2,1.6-6.7,2.8c-0.3,1.1,0.4,2,2.2,2.8c1.8,0.8,4.3,1.5,7.5,2.1c3.2,0.6,6.7,1.2,10.6,1.8c3.9,0.6,7.7,1.3,11.5,2.1
	c3.8,0.8,7.2,1.8,10.2,2.9c3,1.1,5.2,2.6,6.7,4.4c1.5,1.8,1.8,3.9,1,6.2c-0.8,2.4-2.5,4.3-5.1,5.9c-2.6,1.5-5.7,2.6-9.4,3.2
	c-3.7,0.6-7.5,0.9-11.5,1c-4,0.1-8.2-0.1-12.6-0.6c-4.7-0.5-8.8-1.1-12.6-2c-3.7-0.9-6.7-1.8-8.9-2.8c-2.2-1-4.1-2.1-5.6-3.2
	c-1.6-1.2-2.7-2.2-3.3-3.3c-0.6-1-1.1-2-1.4-2.9c-0.3-0.9-0.4-1.6-0.4-2c0-0.4,0.1-0.7,0.1-0.9l13.4,1.3c-0.1,0.2-0.1,0.4-0.1,0.7
	c0,0.3,0.3,0.9,0.9,1.8c0.6,0.9,1.5,1.6,2.8,2.4c1.3,0.7,3.4,1.5,6.4,2.3c3,0.8,6.6,1.4,10.9,1.8c6.1,0.6,11.3,0.6,15.5,0
	c4.2-0.6,6.7-1.9,7.4-3.9c0.5-1.5-0.5-2.8-2.9-3.9c-2.5-1.1-5.7-2-9.7-2.6c-4-0.6-8.4-1.4-13-2.3c-4.7-0.9-9-1.8-12.9-2.7
	c-3.9-1-6.9-2.3-9.1-4.2c-2.2-1.8-2.9-3.9-2-6.4c1.4-3.9,5.4-6.5,12-8c6.6-1.5,15-1.7,25.3-0.7c3.5,0.3,6.8,0.8,9.7,1.3
	c2.9,0.5,5.4,1.2,7.4,1.8c2,0.7,3.8,1.4,5.4,2.1c1.6,0.7,2.8,1.5,3.7,2.2c0.9,0.7,1.6,1.5,2.3,2.2c0.7,0.7,1.1,1.4,1.2,2
	c0.1,0.6,0.3,1.1,0.5,1.6C130.9,419.7,130.9,420.1,130.8,420.3z M148.5,403.5c-1.9,3.1-5.9,4-9,2.2c0,0,0,0,0,0
	c-22.5-13.8-56.8-17.8-83.4-9.8c-3.4,1.2-7.1-0.7-8.3-4.1c-1.2-3.4,0.7-7.1,4.1-8.3c0.1,0,0.3-0.1,0.4-0.1
	c30.4-9.2,68.2-4.8,94.1,11.1C149.5,396.5,150.4,400.5,148.5,403.5C148.5,403.6,148.5,403.6,148.5,403.5L148.5,403.5z M160.1,377.1
	c-2.2,3.7-7,4.9-10.7,2.7v0c-27-16-71.5-17.5-97.3-9.7c-4.1,1.3-8.5-1.1-9.8-5.2c-1.3-4.1,1.1-8.5,5.2-9.8
	c29.6-9,78.8-7.2,109.8,11.2C161.1,368.5,162.4,373.4,160.1,377.1z"/>
</svg>
