<svg id="Calque_1" data-name="Calque 1" xmlns="http://www.w3.org/2000/svg" xmlns:xlink="http://www.w3.org/1999/xlink" viewBox="0 0 800.89 405.28"><defs><style>.cls-1{fill:none;}.cls-2{clip-path:url(#clip-path);}.cls-3{fill:#191415;}</style><clipPath id="clip-path"><rect class="cls-1" x="-1.06" y="67.68" width="859.02" height="257.65"/></clipPath></defs><g class="cls-2"><g class="cls-2"><path class="cls-3" d="M132.28,69.6A126.9,126.9,0,1,0,259.16,196.52v0A126.9,126.9,0,0,0,132.28,69.6m58.18,183a7.89,7.89,0,0,1-10.84,2.65h0C149.79,237.08,112.29,232.93,68.12,243A7.91,7.91,0,0,1,64,227.75c.21-.06.42-.1.63-.14,48.33-11.05,89.79-6.31,123.23,14.13a7.92,7.92,0,0,1,2.63,10.88h0M206,218.08a9.91,9.91,0,0,1-13.63,3.26h0c-34.1-21-86.1-27-126.45-14.78a9.9,9.9,0,1,1-6.39-18.73c.21-.08.43-.14.65-.2,46.08-14,103.37-7.21,142.53,16.85a9.88,9.88,0,0,1,3.28,13.6l0,0m1.34-36C166.39,157.88,98.93,155.6,59.9,167.45A11.87,11.87,0,1,1,53,144.73h0c44.82-13.64,119.32-11,166.42,17a11.87,11.87,0,0,1-12.12,20.41"/><path class="cls-3" d="M350.62,186.74c-21.91-5.23-25.76-8.89-25.76-16.59,0-7.27,6.85-12.12,17.05-12.12,9.88,0,19.69,3.73,29.94,11.38a1.37,1.37,0,0,0,1.09.27,1.4,1.4,0,0,0,.94-.59L384.58,154a1.52,1.52,0,0,0-.28-1.95,64.74,64.74,0,0,0-42.07-14.58c-23.66,0-40.19,14.2-40.19,34.5,0,21.79,14.26,29.5,38.9,35.46,20.95,4.83,24.5,8.86,24.5,16.11,0,8-7.15,13-18.67,13-12.79,0-23.23-4.32-34.85-14.43a1.51,1.51,0,0,0-1-.33,1.44,1.44,0,0,0-1,.5l-12,14.27a1.42,1.42,0,0,0,.15,2,71.58,71.58,0,0,0,48.29,18.52c25.49,0,42-13.93,42-35.49,0-18.18-10.88-28.29-37.58-34.85"/><path class="cls-3" d="M445.85,165.14c-11.05,0-20.11,4.34-27.58,13.27v-10a1.51,1.51,0,0,0-1.44-1.44H397.21a1.43,1.43,0,0,0-1.42,1.42V279.9a1.52,1.52,0,0,0,1.42,1.44h19.62a1.51,1.51,0,0,0,1.44-1.44V244.68a35.2,35.2,0,0,0,27.58,12.5c20.53,0,41.32-15.8,41.32-46s-20.79-46-41.32-46m18.5,46c0,15.38-9.47,26.12-23,26.12s-23.55-11.22-23.55-26.12,10.13-26.12,23.55-26.12,23,11,23,26.12"/><path class="cls-3" d="M540.45,165.14c-26.45,0-47.16,20.36-47.16,46.35,0,25.75,20.56,45.86,46.82,45.86,26.53,0,47.31-20.29,47.31-46.18s-20.63-46-47-46m0,72.3c-14.07,0-24.67-11.3-24.67-26.26s10.23-26,24.33-26S565,196.52,565,211.5s-10.31,26-24.5,26"/><path class="cls-3" d="M643.89,166.94H622.3V144.86a1.52,1.52,0,0,0-1.44-1.51H601.25a1.5,1.5,0,0,0-1.51,1.51v22.08H590.3a1.43,1.43,0,0,0-1.43,1.42v16.87a1.52,1.52,0,0,0,1.43,1.44h9.44v43.62c0,17.64,8.77,26.58,26.07,26.58a35.78,35.78,0,0,0,18.38-4.55,1.5,1.5,0,0,0,.73-1.24V235a1.44,1.44,0,0,0-2.08-1.29,24.64,24.64,0,0,1-11.51,2.79c-6.31,0-9.09-2.87-9.09-9.28V186.67h21.59a1.52,1.52,0,0,0,1.42-1.44V168.38a1.42,1.42,0,0,0-1.41-1.44h0"/><path class="cls-3" d="M643.33,167l.32,19.7H662L690,253.94c-3.19,7.06-6.32,8.47-10.61,8.47a22.76,22.76,0,0,1-10.82-3,1.4,1.4,0,0,0-1.13-.1,1.33,1.33,0,0,0-.85.77L660,274.62a1.53,1.53,0,0,0,.61,1.87,41.46,41.46,0,0,0,21,5.36c14.48,0,22.5-6.74,29.54-24.89l34-88a1.52,1.52,0,0,0-.15-1.33,1.54,1.54,0,0,0-1.18-.63H723.36a1.52,1.52,0,0,0-1.36,1l-20.91,59.73-22.91-59.8a1.54,1.54,0,0,0-1.34-.93Z"/><path class="cls-3" d="M761.88,194.52a13.85,13.85,0,1,1,13.88-13.9,13.86,13.86,0,0,1-13.88,13.9M762,168.2a12.47,12.47,0,1,0,12.35,12.59v-.17A12.34,12.34,0,0,0,762,168.2H762M765,182l3.9,5.47h-3.29l-3.48-5.12h-3v5h-2.75v-14.5h6.44c3.36,0,5.59,1.73,5.59,4.62a4.34,4.34,0,0,1-3.37,4.41m-2.22-6.5h-3.59V180h3.59c1.78,0,2.86-.87,2.86-2.28s-1.08-2.31-2.86-2.31"/></g></g></svg>