<svg width="330" height="175" viewBox="0 0 330 175" fill="none" xmlns="http://www.w3.org/2000/svg">
<path fill-rule="evenodd" clip-rule="evenodd" d="M99.3522 164.249C126.062 171.407 152.517 175 177.792 175C196.759 175 215.064 172.975 232.31 168.912C267.641 160.589 296.652 144.187 313.999 122.725C329.01 104.155 333.662 83.5761 327.096 64.7781C323.078 53.2759 312.444 36.2515 284.455 22.4682C288.836 23.8919 293.255 25.4255 297.706 27.0756C298.978 27.5506 300.353 26.7996 300.785 25.4144C301.214 24.0239 300.535 22.5192 299.265 22.0469C259.491 7.30679 222.33 1.7434 190.584 0.82864C116.578 -4.28341 64.8852 14.8925 34.1511 40.8489C29.33 44.4268 25.0143 48.1772 21.2714 52.0707C14.0869 59.5439 9.24693 67.2677 6.83491 75.0013C-1.34337 92.1114 -2.27875 109.553 4.54931 122.9C12.6826 138.811 30.2099 147.059 53.927 146.051C55.2655 145.995 56.3126 144.761 56.2615 143.298C56.2105 141.833 55.0153 140.591 53.7424 140.748C31.9444 141.634 15.9913 134.394 8.78841 120.312C4.87131 112.653 3.90959 103.363 5.76541 93.5318C5.89722 94.1808 6.04726 94.8284 6.21557 95.4745C12.5404 119.751 43.6209 138.905 96.0919 150.87C123.455 157.112 148.252 159.843 170.492 159.843C237.167 159.84 280.832 135.296 301.511 107.196C314.959 88.9173 319.004 68.3007 312.33 52.0416C311.429 49.8481 310.36 47.7702 309.129 45.8117C316.595 53.4261 320.512 60.8131 322.558 66.6703C328.449 83.5337 324.115 102.191 310.358 119.211C266.478 173.493 170.822 177.938 100.511 159.092C99.2235 158.75 97.8898 159.615 97.5716 161.037C97.2533 162.46 98.0502 163.898 99.3522 164.249ZM280.03 26.0691C275.228 24.8313 270.008 24.0479 264.409 23.7426C263.093 23.6232 261.93 24.7987 261.862 26.2609C261.794 27.7258 262.826 28.973 264.166 29.0447C286.197 30.2468 301.729 39.1844 307.899 54.2123C313.811 68.6165 310.009 87.1791 297.725 103.868C271.054 140.115 204.336 170.131 97.085 145.677C47.2168 134.303 16.6024 115.961 10.887 94.0203C9.32451 88.0263 9.75592 82.2881 11.3642 76.9935C12.4657 74.7301 13.7049 72.4695 15.0803 70.224C20.339 61.6398 27.5463 53.1698 36.7457 45.3249C59.4093 28.4249 93.9098 15.4224 132.655 9.57186C148.493 7.17936 168.02 5.49609 190.247 6.12249C197.649 6.63446 205.281 7.39198 213.145 8.4131C242.456 12.2195 264.08 18.6256 280.03 26.0691Z" fill="#FFD27B"/>
</svg>
