<svg id="Calque_1" data-name="Calque 1" xmlns="http://www.w3.org/2000/svg" viewBox="0 0 191.86 71.02"><defs><style>.cls-1,.cls-3{fill:#f573a1;}.cls-1{fill-rule:evenodd;}.cls-2{fill:none;}.cls-3{isolation:isolate;font-size:25px;font-family:HelveticaNeue-Medium, Helvetica Neue;font-weight:500;}</style></defs><path class="cls-1" d="M57.8,66.6A249.43,249.43,0,0,0,103.4,71a190.32,190.32,0,0,0,31.7-2.5c20.6-3.4,37.4-10,47.5-18.7,8.7-7.5,11.4-15.9,7.6-23.5-2.3-4.7-8.5-11.6-24.8-17.2,2.5.6,5.1,1.2,7.7,1.9a1.56,1.56,0,0,0,1.8-.7,1.07,1.07,0,0,0-.9-1.4A275.71,275.71,0,0,0,110.8.3c-43-2-73,5.7-90.9,16.3a64.66,64.66,0,0,0-7.5,4.6c-4.2,3-7,6.2-8.4,9.3-4.8,6.9-5.3,14-1.3,19.4,4.7,6.5,14.9,9.8,28.7,9.4a1.27,1.27,0,0,0,1.4-1.1,1.24,1.24,0,0,0-1.5-1c-12.7.4-22-2.6-26.2-8.3A12.59,12.59,0,0,1,3.3,38c.1.3.2.5.3.8,3.7,9.8,21.8,17.6,52.3,22.5a279.17,279.17,0,0,0,43.3,3.6c38.8,0,64.2-10,76.2-21.4,7.8-7.4,10.2-15.8,6.3-22.4a11,11,0,0,0-1.9-2.5c4.3,3.1,6.6,6.1,7.8,8.5,3.4,6.8.9,14.4-7.1,21.3-25.5,22-81.1,23.8-122,16.1a1.54,1.54,0,0,0-1.7.8C56.6,65.9,57,66.5,57.8,66.6Zm105.1-56a62.32,62.32,0,0,0-9.1-.9,1.38,1.38,0,0,0-1.5,1,1.23,1.23,0,0,0,1.3,1.1c12.8.5,21.9,4.1,25.4,10.2,3.4,5.8,1.2,13.4-5.9,20.1C157.6,56.8,118.8,69,56.4,59.1,27.4,54.5,9.6,47,6.2,38.1a8.67,8.67,0,0,1,.3-6.9,26.09,26.09,0,0,1,2.2-2.7A54,54,0,0,1,21.3,18.4C34.6,11.5,54.6,6.3,77.2,3.9a256.41,256.41,0,0,1,33.5-1.4c4.3.2,8.7.5,13.3.9C141.1,5,153.6,7.6,162.9,10.6Z" transform="translate(-0.02 0.02)"/><rect class="cls-2" x="36.08" y="21.42" width="114.2" height="22.3"/><text class="cls-3" transform="translate(24.65 41.16)">Cette année</text></svg>