<svg id="Calque_1" data-name="Calque 1" xmlns="http://www.w3.org/2000/svg" viewBox="0 0 192 71"><defs><style>.cls-1,.cls-2{fill:#f573a1;}.cls-1{fill-rule:evenodd;}.cls-2{font-size:30px;font-family:HelveticaNeue-Medium, Helvetica Neue;font-weight:500;}</style></defs><path class="cls-1" d="M57.8,66.64A250.15,250.15,0,0,0,103.44,71a196,196,0,0,0,31.72-2.47c20.56-3.38,37.44-10,47.53-18.74,8.73-7.53,11.44-15.88,7.62-23.51C188,21.61,181.79,14.71,165.5,9.12c2.55.57,5.12,1.2,7.71,1.86a1.54,1.54,0,0,0,1.79-.67c.25-.56-.14-1.17-.88-1.37A275.25,275.25,0,0,0,110.89.34C67.83-1.74,37.75,6,19.87,16.57a57.73,57.73,0,0,0-7.49,4.56c-4.18,3-7,6.16-8.4,9.3-4.76,6.94-5.31,14-1.33,19.43,4.73,6.46,14.93,9.8,28.73,9.39.77,0,1.38-.52,1.35-1.11a1.3,1.3,0,0,0-1.46-1c-12.68.36-22-2.57-26.16-8.29A12.31,12.31,0,0,1,3.35,38c.08.26.17.52.27.79C7.3,48.58,25.38,56.36,55.91,61.21A276.55,276.55,0,0,0,99.2,64.85c38.79,0,64.19-10,76.22-21.36,7.83-7.42,10.18-15.78,6.3-22.38a15.44,15.44,0,0,0-1.86-2.52c4.34,3.09,6.62,6.08,7.81,8.46,3.43,6.84.91,14.41-7.1,21.32C155,70.39,99.39,72.19,58.48,64.55a1.48,1.48,0,0,0-1.71.79C56.58,65.91,57.05,66.5,57.8,66.64ZM162.93,10.58a65.4,65.4,0,0,0-9.09-.95,1.31,1.31,0,0,0-1.48,1c0,.6.56,1.1,1.34,1.13,12.81.49,21.85,4.12,25.44,10.21,3.44,5.85,1.23,13.38-5.92,20.15C157.7,56.85,118.89,69,56.49,59.1c-29-4.61-46.83-12.05-50.16-21a9,9,0,0,1,.28-6.91,30.89,30.89,0,0,1,2.16-2.75,52.26,52.26,0,0,1,12.61-10.1C34.57,11.53,54.64,6.26,77.18,3.88a271.37,271.37,0,0,1,33.51-1.4q6.47.31,13.32.93C141.07,5,153.65,7.56,162.93,10.58Z" transform="translate(0 0)"/><text class="cls-2" transform="translate(36.13 42.85)">Ce mois</text></svg>