<?xml version="1.0" encoding="utf-8"?>
<!-- Generator: Adobe Illustrator 25.4.1, SVG Export Plug-In . SVG Version: 6.00 Build 0)  -->
<svg version="1.1" id="Calque_1" xmlns="http://www.w3.org/2000/svg" xmlns:xlink="http://www.w3.org/1999/xlink" x="0px" y="0px"
	 viewBox="0 0 192 71" style="enable-background:new 0 0 192 71;" xml:space="preserve">
<style type="text/css">
	.st0{fill-rule:evenodd;clip-rule:evenodd;fill:#F573A1;}
	.st1{fill:none;}
	.st2{fill:#F573A1;}
	.st3{font-family:'HelveticaNeue-Medium';}
	.st4{font-size:30.0872px;}
</style>
<path class="st0" d="M57.8,66.6c15.5,2.9,30.9,4.4,45.6,4.4c11,0,21.7-0.8,31.7-2.5c20.6-3.4,37.4-10,47.5-18.7
	c8.7-7.5,11.4-15.9,7.6-23.5c-2.3-4.7-8.5-11.6-24.8-17.2c2.5,0.6,5.1,1.2,7.7,1.9c0.7,0.2,1.5-0.1,1.8-0.7c0.2-0.6-0.1-1.2-0.9-1.4
	c-23.1-6-44.8-8.2-63.2-8.6c-43-2-73,5.7-90.9,16.3c-2.8,1.5-5.3,3-7.5,4.6c-4.2,3-7,6.2-8.4,9.3c-4.8,6.9-5.3,14-1.3,19.4
	c4.7,6.5,14.9,9.8,28.7,9.4c0.8,0,1.4-0.5,1.4-1.1s-0.7-1.1-1.5-1c-12.7,0.4-22-2.6-26.2-8.3C2.8,45.8,2.3,42,3.3,38
	c0.1,0.3,0.2,0.5,0.3,0.8c3.7,9.8,21.8,17.6,52.3,22.5c15.9,2.5,30.3,3.6,43.3,3.6c38.8,0,64.2-10,76.2-21.4
	c7.8-7.4,10.2-15.8,6.3-22.4c-0.5-0.9-1.1-1.7-1.9-2.5c4.3,3.1,6.6,6.1,7.8,8.5c3.4,6.8,0.9,14.4-7.1,21.3
	c-25.5,22-81.1,23.8-122,16.1c-0.7-0.1-1.5,0.2-1.7,0.8C56.6,65.9,57,66.5,57.8,66.6z M162.9,10.6c-2.8-0.5-5.8-0.8-9.1-0.9
	c-0.8,0-1.4,0.4-1.5,1c0,0.6,0.6,1.1,1.3,1.1c12.8,0.5,21.9,4.1,25.4,10.2c3.4,5.8,1.2,13.4-5.9,20.1c-15.5,14.7-54.3,26.9-116.7,17
	c-29-4.6-46.8-12.1-50.2-21c-0.9-2.4-0.7-4.8,0.3-6.9c0.6-0.9,1.4-1.8,2.2-2.7c3.1-3.5,7.3-6.9,12.6-10.1
	C34.6,11.5,54.6,6.3,77.2,3.9c9.2-1,20.6-1.7,33.5-1.4C115,2.7,119.4,3,124,3.4C141.1,5,153.6,7.6,162.9,10.6z"/>
<rect x="36.1" y="21.4" class="st1" width="114.2" height="22.3"/>
<text transform="matrix(1 0 0 1 47.7602 43.7)" class="st2 st3 st4">All time</text>
</svg>
