<svg width="416" height="132" viewBox="0 0 416 132" fill="none" xmlns="http://www.w3.org/2000/svg">
<path fill-rule="evenodd" clip-rule="evenodd" d="M125.244 123.891C158.915 129.289 192.264 132 224.125 132C248.036 132 271.111 130.473 292.851 127.408C337.39 121.13 373.961 108.759 395.829 92.5696C414.752 78.5626 420.616 63.0403 412.339 48.8612C407.273 40.1852 393.868 27.344 358.586 16.9474C364.109 18.0213 369.679 19.1781 375.29 20.4228C376.894 20.781 378.626 20.2146 379.171 19.1697C379.713 18.1209 378.856 16.9859 377.255 16.6296C327.116 5.51141 280.27 1.31502 240.251 0.625032C146.959 -3.23092 81.7946 11.2332 43.051 30.8118C36.9736 33.5105 31.5332 36.3394 26.8149 39.2762C17.758 44.9131 11.6567 50.7391 8.61614 56.5724C-1.69345 69.4783 -2.87261 82.6342 5.73488 92.7017C15.9877 104.703 38.0827 110.925 67.9807 110.164C69.6681 110.122 70.988 109.191 70.9237 108.088C70.8593 106.983 69.3527 106.046 67.748 106.164C40.2693 106.833 20.1587 101.372 11.0787 90.7499C6.1408 84.9722 4.92845 77.9653 7.2679 70.5497C7.43407 71.0392 7.62321 71.5277 7.83539 72.0151C15.8086 90.3261 54.9888 104.774 121.134 113.799C155.628 118.507 186.887 120.567 214.924 120.567C298.974 120.565 354.018 102.052 380.086 80.8563C397.04 67.069 402.139 51.5183 393.725 39.2542C392.59 37.5997 391.242 36.0324 389.69 34.5551C399.102 40.2985 404.039 45.8705 406.618 50.2885C414.044 63.0082 408.581 77.0812 391.239 89.9191C335.923 130.863 215.339 134.216 126.705 120.001C125.082 119.743 123.4 120.395 122.999 121.468C122.598 122.541 123.603 123.626 125.244 123.891ZM353.008 19.6636C346.955 18.7299 340.374 18.139 333.315 17.9087C331.656 17.8186 330.19 18.7053 330.105 19.8082C330.019 20.9132 331.32 21.8539 333.009 21.908C360.782 22.8147 380.362 29.5562 388.139 40.8915C395.592 51.7565 390.799 65.758 375.315 78.3463C341.693 105.687 257.587 128.327 122.386 109.882C59.5218 101.303 20.9291 87.4678 13.7242 70.9182C11.7545 66.397 12.2984 62.0688 14.3258 58.0751C15.7143 56.3679 17.2765 54.6627 19.0103 52.969C25.6394 46.4941 34.7251 40.1053 46.3218 34.1879C74.8917 21.4405 118.383 11.6329 167.225 7.21992C187.192 5.41529 211.807 4.14562 239.826 4.61811C249.158 5.00428 258.779 5.57566 268.692 6.34588C305.641 9.21699 332.901 14.049 353.008 19.6636Z" fill="#2548C0"/>
</svg>
