<svg width="192" height="71" viewBox="0 0 192 71" fill="none" xmlns="http://www.w3.org/2000/svg">
<path fill-rule="evenodd" clip-rule="evenodd" d="M57.8049 66.6381C73.3453 69.5421 88.7373 71 103.442 71C114.478 71 125.128 70.1784 135.162 68.5299C155.718 65.1532 172.597 58.4989 182.69 49.7912C191.424 42.2572 194.131 33.908 190.31 26.2814C187.972 21.6148 181.785 14.7077 165.501 9.11568C168.05 9.69328 170.621 10.3155 173.211 10.985C173.951 11.1777 174.751 10.873 175.002 10.311C175.252 9.74683 174.857 9.13637 174.118 8.94473C150.976 2.96447 129.355 0.707325 110.885 0.336192C67.8274 -1.73785 37.7513 6.0421 19.8697 16.573C17.0647 18.0246 14.5538 19.5462 12.3761 21.1258C8.19599 24.1578 5.38005 27.2915 3.97669 30.4291C-0.781594 37.3709 -1.32582 44.4472 2.64687 49.8623C7.37894 56.3174 17.5767 59.6639 31.3757 59.2548C32.1545 59.2322 32.7637 58.7315 32.734 58.1382C32.7043 57.5438 32.0089 57.0399 31.2683 57.1034C18.5858 57.4631 9.304 54.5257 5.11326 48.8124C2.83421 45.7047 2.27467 41.9359 3.35442 37.9472C3.43111 38.2105 3.51841 38.4732 3.61633 38.7354C7.29626 48.5845 25.3795 56.3557 55.908 61.2103C71.8285 63.7425 86.2558 64.8504 99.1955 64.8504C137.988 64.8493 163.393 54.8915 175.424 43.4909C183.249 36.075 185.602 27.7106 181.719 21.114C181.195 20.2241 180.573 19.381 179.857 18.5864C184.201 21.6757 186.48 24.6727 187.67 27.0491C191.097 33.8908 188.576 41.4604 180.572 48.3656C155.041 70.3884 99.3873 72.192 58.4791 64.5459C57.73 64.407 56.9541 64.7581 56.7689 65.3352C56.5838 65.9123 57.0474 66.4959 57.8049 66.6381ZM162.927 10.5766C160.133 10.0744 157.096 9.75656 153.838 9.6327C153.072 9.58426 152.396 10.0612 152.356 10.6544C152.316 11.2487 152.917 11.7548 153.697 11.7838C166.515 12.2716 175.552 15.8977 179.141 21.9947C182.581 27.8387 180.369 35.3698 173.222 42.1408C157.704 56.8466 118.886 69.0245 56.4858 59.1033C27.4716 54.4888 9.65961 47.0471 6.33425 38.1454C5.42517 35.7135 5.67617 33.3855 6.61189 31.2374C7.25275 30.3191 7.97375 29.4019 8.77397 28.4909C11.8336 25.0082 16.0269 21.5718 21.3793 18.389C34.5654 11.5324 54.6384 6.2571 77.181 3.88344C86.3961 2.91277 97.7572 2.22984 110.689 2.48398C114.996 2.6917 119.437 2.99903 124.012 3.41331C141.065 4.95763 153.647 7.55669 162.927 10.5766Z" fill="#F573A1"/>
</svg>
