<svg width="557" height="576" viewBox="0 0 557 576" fill="none" xmlns="http://www.w3.org/2000/svg">
<path d="M200.349 202.957C230.695 49.6646 248.311 -0.981124 258.633 0.18485C267.849 1.20368 269.6 43.035 286.226 45.2468C299.64 47.0162 307.559 19.8534 318.022 20.9876C348.966 24.3333 363.763 129.377 371.493 226.357C480.918 98.2856 518.709 75.9993 531.175 83.8504C536.659 87.2954 540.31 99.1687 547.601 122.903C551.583 135.723 554.577 148.826 556.557 162.095C560.637 193.597 523.094 262.989 450.945 332.162C540.477 432.11 551.754 467.358 542.499 479.719C535.184 489.46 516.578 483.144 506.216 496.813C488.087 520.592 523.52 567.295 515.656 574.474C508.174 581.299 463.107 550.742 324.823 421.004C320.384 435.483 299.026 499.49 237.437 525.567C224.27 531.133 173.008 552.833 139.715 525.137C116.411 505.847 137.9 464.661 117.244 452.107C98.9727 441.033 70.2349 463.039 59.6171 450.642C54.5662 444.758 57.0051 435.075 57.7187 432.238C67.177 394.55 158.117 384.682 170.892 383.396C31.6558 269.555 -4.62905 230.329 0.526795 222.863C3.28911 218.895 18.6722 222.735 26.1742 212.378C31.0055 205.641 28.4568 198.591 29.7053 194.642C33.1694 183.551 71.8005 180.346 200.349 202.957Z" fill="#F573A1"/>
</svg>
