<svg width="103" height="115" viewBox="0 0 103 115" fill="none" xmlns="http://www.w3.org/2000/svg">
<path fill-rule="evenodd" clip-rule="evenodd" d="M69.1338 54.4602C60.0325 52.2414 55.6037 47.9008 53.1669 39.2249C52.076 42.5497 50.5236 45.2409 48.3949 47.4542C45.2031 50.7716 40.9873 52.7723 35.1513 53.9462C39.3729 55.492 42.7427 57.6249 45.3135 60.5672C48.2816 63.9661 50.0546 68.1737 50.9059 73.7034C54.217 63.6656 59.2261 57.6557 69.1338 54.4602ZM52.1345 0.00676944C53.5232 0.027553 54.6819 1.11415 54.7626 2.51794C54.7929 2.99568 54.818 3.46804 54.8431 3.93771L55.0805 8.10098C57.5023 50.8677 57.5023 50.8677 99.9671 51.5032C101.447 51.5253 102.625 52.7349 102.603 54.2091C102.581 55.6833 101.367 56.8571 99.8873 56.8349C57.6178 56.2024 56.6206 62.7497 50.1297 105.354L49.1154 111.965C48.8931 113.407 47.5824 114.432 46.1032 114.197C44.6529 113.996 43.6342 112.675 43.8138 111.229C47.0968 85.0003 47.5514 71.256 41.2758 64.0666C36.0448 58.0767 25.5885 55.723 2.69712 55.3804C1.2174 55.3583 0.0391492 54.1487 0.0612123 52.6745C0.0832754 51.2003 1.2972 50.0265 2.77691 50.0486C24.681 50.3765 38.4228 50.1155 44.529 43.7673C50.203 37.8633 50.7051 25.7756 49.5018 4.24175L49.4212 2.82731C49.4169 2.76059 49.4152 2.69389 49.4162 2.62991C49.4369 1.24365 50.5274 0.0920515 51.9364 0.0118084C52.0033 0.00747718 52.0676 0.00576831 52.1345 0.00676944Z" fill="#2548C0"/>
</svg>
