<svg width="190" height="208" viewBox="0 0 190 208" fill="none" xmlns="http://www.w3.org/2000/svg">
<path fill-rule="evenodd" clip-rule="evenodd" d="M26.4415 47.4926C33.6588 49.1381 37.2093 52.5153 39.2373 59.3414C40.0598 56.7015 41.2546 54.5568 42.9104 52.7829C45.393 50.1241 48.7003 48.4934 53.2975 47.4969C49.9437 46.3255 47.256 44.68 45.19 42.3857C42.8047 39.7353 41.354 36.4319 40.616 32.0729C38.1186 40.0429 34.2319 44.8507 26.4415 47.4926ZM40.5166 90.3158C39.4191 90.3158 38.4908 89.471 38.4104 88.3628C38.3818 87.9986 38.3572 87.6384 38.3327 87.2802L38.3301 87.242L38.0932 83.9553C35.6741 50.1936 35.6741 50.1936 2.11465 50.1936C0.945247 50.1936 0 49.2518 0 48.0868C0 46.9217 0.945247 45.98 2.11465 45.98C35.5195 45.98 36.2302 40.7951 40.8549 7.05714L40.855 7.05652L41.5782 1.82108C41.7368 0.679184 42.7603 -0.146688 43.9318 0.0218572C45.08 0.163014 45.9005 1.19535 45.7757 2.33936C43.4919 23.102 43.2953 33.9669 48.3387 39.5731C52.5426 44.2439 60.832 45.98 78.9228 45.98C80.0922 45.98 81.0375 46.9217 81.0375 48.0868C81.0375 49.2518 80.0922 50.1936 78.9228 50.1936C61.6123 50.1936 50.7578 50.5623 46.0083 55.6502C41.5951 60.3821 41.3413 69.9387 42.5467 86.9386L42.627 88.0552C42.6313 88.1078 42.6334 88.1605 42.6334 88.2111C42.6334 89.3066 41.7854 90.2294 40.6731 90.3095C40.6202 90.3137 40.5695 90.3158 40.5166 90.3158ZM70.8287 114.766C95.2855 117.609 103.398 125.757 107.341 148.186C108.705 138.644 111.477 131.602 116.25 126.482C122.572 119.697 131.897 116.371 146.275 114.764C135.045 112.565 126.658 108.76 120.912 102.365C114.353 95.0706 111.45 85.0525 110.981 70.0526C105.379 96.9622 96.6855 109.719 70.8287 114.766ZM109.782 199.242C108.686 199.242 107.759 198.395 107.679 197.289L107.644 196.82C107.603 196.255 107.562 195.693 107.522 195.135L107.032 188.314L107.032 188.313C106.694 183.582 106.378 179.167 106.06 175.046C103.943 175.022 101.603 175.022 99.0161 175.022C97.8571 175.022 96.9164 174.079 96.9164 172.912C96.9164 171.748 97.8571 170.803 99.0161 170.803C101.457 170.803 103.682 170.768 105.712 170.684C101.495 119.719 95.3183 117.538 31.6793 117.538C30.5116 117.538 29.5677 116.596 29.5677 115.431C29.5677 114.269 30.5116 113.325 31.6793 113.325C101.523 113.325 103.221 100.937 112.637 32.1768L112.864 30.5228L112.864 30.5166C113.263 27.6154 113.674 24.6189 114.104 21.5246C114.26 20.385 115.299 19.5635 116.454 19.7257C117.601 19.8668 118.42 20.899 118.296 22.0428C113.583 64.9719 113.243 87.5212 124.054 99.5531C133.077 109.592 150.378 113.325 187.888 113.325C189.054 113.325 190 114.269 190 115.431C190 116.596 189.054 117.538 187.888 117.538C152.086 117.538 129.608 118.332 119.343 129.349C112.284 136.923 110.132 149.819 110.509 170.353C126.195 168.723 127.115 161.962 130.22 139.147L130.221 139.137L130.809 134.833C130.967 133.69 131.987 132.874 133.146 133.03C134.286 133.171 135.101 134.207 134.975 135.352C133.13 152.303 132.957 161.162 136.972 165.664C140.315 169.41 146.996 170.803 161.618 170.803C162.741 170.803 163.661 171.691 163.715 172.809C163.718 172.843 163.718 172.879 163.718 172.912C163.718 174.079 162.779 175.022 161.618 175.022C147.611 175.022 138.832 175.317 135.065 179.387C131.578 183.157 131.391 191.273 132.348 204.874L132.411 205.736C132.416 205.789 132.418 205.842 132.418 205.892C132.418 206.989 131.574 207.913 130.471 207.994C130.419 207.998 130.366 208 130.316 208C129.224 208 128.304 207.154 128.225 206.044L128.219 205.963C128.198 205.682 128.177 205.404 128.157 205.129L127.964 202.42C126.987 188.642 126.5 181.792 122.824 178.388C120.44 176.179 116.712 175.42 110.638 175.159C110.842 181.09 111.222 187.605 111.729 194.751L111.889 196.98C111.891 197.003 111.892 197.025 111.893 197.047C111.895 197.077 111.895 197.106 111.895 197.136C111.895 198.231 111.049 199.156 109.938 199.236C109.921 199.237 109.905 199.238 109.889 199.239C109.876 199.24 109.864 199.24 109.852 199.241C109.829 199.242 109.805 199.242 109.782 199.242ZM129.26 181.039C127.63 176.391 124.953 173.82 120.055 172.417C125.413 170.315 128.359 166.786 130.312 161.263C130.986 164.217 132.122 166.55 133.843 168.48C135.33 170.145 137.194 171.402 139.464 172.345C136.248 173.195 133.848 174.505 131.991 176.514C130.818 177.781 129.923 179.269 129.26 181.039Z" fill="#FFD27B"/>
</svg>
