<svg width="56" height="62" viewBox="0 0 56 62" fill="none" xmlns="http://www.w3.org/2000/svg">
<path fill-rule="evenodd" clip-rule="evenodd" d="M18.0917 32.495C23.0298 33.6208 25.4591 35.9315 26.8466 40.602C27.4095 38.7958 28.2269 37.3284 29.3598 36.1146C31.0584 34.2954 33.3213 33.1797 36.4668 32.4979C34.1721 31.6964 32.3331 30.5706 30.9195 29.0008C29.2875 27.1874 28.2949 24.9271 27.79 21.9446C26.0812 27.3978 23.4219 30.6873 18.0917 32.495ZM27.7219 61.795C26.971 61.795 26.3358 61.217 26.2808 60.4587C26.2606 60.2007 26.2432 59.9456 26.2258 59.6919L26.0638 57.4431C24.4086 34.343 24.4086 34.343 1.44686 34.343C0.646748 34.343 0 33.6986 0 32.9015C0 32.1043 0.646748 31.46 1.44686 31.46C24.303 31.46 24.7891 27.9124 27.9534 4.82814L28.4482 1.246C28.5567 0.464705 29.257 -0.100366 30.0586 0.0149549C30.8442 0.111536 31.4056 0.817874 31.3202 1.60061C29.7576 15.8067 29.6231 23.2405 33.0738 27.0763C35.9502 30.2722 41.6219 31.46 53.9998 31.46C54.7999 31.46 55.4467 32.1043 55.4467 32.9015C55.4467 33.6986 54.7999 34.343 53.9998 34.343C42.1558 34.343 34.729 34.5952 31.4794 38.0765C28.4598 41.3141 28.2862 47.8528 29.1109 59.4843L29.1659 60.2483C29.1688 60.2843 29.1702 60.3204 29.1702 60.355C29.1702 61.1045 28.59 61.7359 27.829 61.7907C27.7928 61.7936 27.7581 61.795 27.7219 61.795Z" fill="#2548C0"/>
</svg>
