<svg width="505" height="487" viewBox="0 0 505 487" fill="none" xmlns="http://www.w3.org/2000/svg">
<path fill-rule="evenodd" clip-rule="evenodd" d="M194.907 274.143C206.116 270.89 214.371 271.565 220.548 276.014C233.278 285.182 236.99 310.035 231.543 363.032C242.815 315.551 253.081 295.919 265.712 293.631C272.814 292.351 280.327 296.542 289.255 307.197C285.127 295.523 285.362 287.816 289.65 282.903C298.152 273.162 322.611 275.988 375.227 294.689C332.939 273.541 316.935 259.839 318.36 248.362C319.295 240.821 327.629 234.854 345.542 229.641C325.521 230.225 315.659 227.218 312.86 220.459C308.932 210.964 320.253 195.36 353.651 166.98C313.916 192.436 299.285 194.948 291.94 189.078C285.689 184.087 285.563 172.266 292.188 150.777C279.159 173.132 268.497 182.5 258.076 181.735C246.356 180.865 235.445 166.895 223.007 134.956C232.434 177.466 230.944 189.28 224.843 192.324C220.512 194.501 214.265 192.216 200.705 177.608C207.315 190.872 208.255 200.149 204.056 206.734C196.488 218.601 173.047 220.963 122.317 212.952C180.212 229.406 202.74 241.783 204.631 255.565C205.454 261.549 202.284 267.6 194.619 274.227L194.907 274.143ZM216.854 454.82C216.54 454.911 216.199 454.935 215.855 454.876C214.979 454.727 214.31 454.086 214.078 453.287C213.986 452.972 213.962 452.631 214.023 452.286C230.499 355.869 236.903 293.379 217.952 279.768C209.433 273.647 195.233 276.551 171.9 289.192C170.806 289.783 169.451 289.377 168.862 288.286C168.782 288.141 168.722 287.99 168.678 287.839C168.39 286.847 168.82 285.755 169.764 285.243C191.613 273.409 201.287 264.215 200.206 256.316C197.54 236.856 130.787 217.793 23.9369 193.342C23.1142 193.153 22.5026 192.533 22.283 191.777C22.1804 191.423 22.1621 191.038 22.2509 190.653C22.5241 189.447 23.7271 188.687 24.9336 188.967C121.98 211.174 188.942 222.318 200.331 204.518C206.249 195.268 197.738 176.311 173.557 144.858C173.381 144.629 173.256 144.375 173.181 144.114C172.929 143.255 173.211 142.289 173.965 141.711C174.944 140.959 176.353 141.139 177.108 142.119C202.649 175.339 218.064 190.981 222.924 188.517C233.238 183.378 209.368 96.5697 199.176 59.5001C198.848 58.3053 199.556 57.0061 200.745 56.7429C201.929 56.4156 203.152 57.1075 203.491 58.285L203.5 58.313C220.279 119.332 238.555 175.997 258.523 177.46C271.8 178.421 288.088 155.338 311.218 102.549C311.718 101.415 313.038 100.899 314.175 101.396C314.807 101.676 315.247 102.212 315.426 102.828C315.567 103.315 315.546 103.854 315.327 104.355C301.708 135.433 284.772 177.682 294.88 185.737C307.888 196.104 368.148 153.915 425.377 111.275C426.365 110.537 427.771 110.741 428.512 111.737C428.677 111.958 428.794 112.199 428.866 112.45C429.12 113.325 428.825 114.301 428.053 114.875C369.871 158.226 311.198 204.478 317.152 218.854C321.552 229.479 362.944 224.721 393.697 220.219C394.818 220.053 395.871 220.752 396.176 221.813C396.204 221.91 396.227 222.011 396.241 222.115C396.423 223.338 395.617 224.486 394.348 224.657C364.456 229.038 324.528 236.322 322.94 248.994C320.698 266.922 391.491 299.127 468.328 331.259C468.979 331.532 469.435 332.075 469.619 332.707C469.756 333.181 469.737 333.703 469.534 334.194C469.059 335.337 467.748 335.879 466.603 335.4C371.336 295.562 305.36 271.886 293.102 285.911C287.504 292.308 292.214 307.867 307.927 334.882C308.021 335.046 308.094 335.214 308.144 335.389C308.424 336.352 308.024 337.42 307.118 337.949C306.045 338.569 304.677 338.209 304.052 337.138C287.602 308.858 275.688 296.452 266.56 298.102C248.075 301.499 233.921 362.459 218.44 453.044C218.292 453.919 217.653 454.588 216.854 454.82Z" fill="#2548C0"/>
</svg>
