<svg width="485" height="23" viewBox="0 0 485 23" fill="none" xmlns="http://www.w3.org/2000/svg">
<path fill-rule="evenodd" clip-rule="evenodd" d="M395.074 14.6831C438.453 15.8013 470.967 15.6289 477.65 12.7939C468.558 8.50958 398.316 1.12942 233.648 8.0968C259.187 9.31926 286.224 10.5894 312.646 11.7188C357.853 10.3898 365.178 10.95 395.074 14.6831ZM186.308 10.3694C184.52 10.4669 182.729 10.5621 180.922 10.6619C114.964 14.259 77.0746 16.7357 55.3731 18.4163C76.6647 18.3097 113.566 17.6883 177.448 15.8943C207.898 15.0392 233.171 14.259 253.898 13.5968C240.751 12.9821 227.019 12.3267 212.683 11.6349C203.83 11.2108 195.02 10.7844 186.308 10.3694ZM52.2148 23C21.9221 23 21.7978 21.6142 21.6399 19.8134C21.4014 17.2165 21.3241 16.3411 62.8388 13.3019C82.3597 11.8708 108.862 10.1925 141.91 8.29185C77.1149 5.35021 23.3199 3.45414 3.79894 5.18919C1.92748 5.35929 0.267701 4.47929 0.0291495 3.23868C-0.212762 1.9958 1.07743 0.857254 2.91865 0.693956C27.3349 -1.48562 102.445 1.81209 186.278 5.82197C294.388 0.0589088 363.814 0.158702 403.222 1.27911C430.564 2.05704 477.418 4.31373 483.977 10.7096C485.132 11.8345 485.317 13.1613 484.491 14.3475C481.359 18.8382 458.717 20.3237 414.699 19.6501C414.232 20.7637 412.569 21.4918 410.859 21.265C406.474 20.7252 402.499 20.2262 398.854 19.7703C397.349 19.5798 395.897 19.3984 394.5 19.2237C371.753 18.6363 344.578 17.6225 312.757 16.2572C303.524 16.5293 292.695 16.8831 279.736 17.3027C255.387 18.0965 222.04 19.1806 177.73 20.4258C112.212 22.2674 74.2389 23 52.2148 23Z" fill="#2548C0"/>
</svg>
