<svg width="547" height="25" viewBox="0 0 547 25" fill="none" xmlns="http://www.w3.org/2000/svg">
<path fill-rule="evenodd" clip-rule="evenodd" d="M445.578 15.9599C494.503 17.1753 531.173 16.988 538.71 13.9064C528.456 9.24954 449.235 1.22763 263.517 8.80086C292.32 10.1296 322.813 11.5102 352.613 12.7379C403.599 11.2932 411.86 11.9021 445.578 15.9599M210.124 11.271C208.108 11.377 206.089 11.4806 204.05 11.5891C129.66 15.4989 86.9274 18.191 62.4518 20.0177C86.4651 19.9019 128.084 19.2264 200.132 17.2764C234.475 16.347 262.979 15.4989 286.356 14.7791C271.528 14.111 256.04 13.3986 239.871 12.6466C229.886 12.1856 219.95 11.7222 210.124 11.271M58.8897 25C24.7246 25 24.5844 23.4937 24.4063 21.5363C24.1372 18.7136 24.05 17.762 70.8718 14.4586C92.8882 12.903 122.779 11.0788 160.051 9.01288C86.9729 5.81545 26.3009 3.75451 4.28457 5.64042C2.17388 5.82531 0.301923 4.8688 0.0328758 3.52031C-0.239961 2.16935 1.21517 0.931798 3.29175 0.7543C30.8293 -1.6148 115.541 1.96967 210.09 6.32822C332.022 0.0640313 410.322 0.172502 454.768 1.39033C485.606 2.23591 538.449 4.68883 545.846 11.6408C547.149 12.8636 547.358 14.3058 546.425 15.5951C542.894 20.4763 517.357 22.091 467.712 21.3588C467.185 22.5693 465.31 23.3606 463.381 23.1141C458.436 22.5274 453.953 21.985 449.841 21.4895C448.144 21.2824 446.507 21.0852 444.93 20.8954C419.276 20.2569 388.628 19.1549 352.738 17.6708C342.325 17.9667 330.112 18.3512 315.496 18.8073C288.034 19.6701 250.425 20.8485 200.45 22.2019C126.557 24.2037 83.7292 25 58.8897 25" fill="#FFD27B"/>
</svg>
